<?xml version="1.0" encoding="UTF-8"?>
<svg id="Ebene_4" xmlns="http://www.w3.org/2000/svg" version="1.1" viewBox="0 0 32 32">
  <defs>
    <style>
      .st0, .st1 {
        fill: none;
        stroke: #164293;
        stroke-miterlimit: 10;
        stroke-width: 2px;
      }

      .st1 {
        stroke-linecap: round;
      }
    </style>
  </defs>
  <circle class="st0" cx="15.9" cy="4.6" r="1.8"/>
  <line class="st0" x1="15.9" y1="6.3" x2="15.9" y2="9.7"/>
  <path class="st0" d="M18.7,9.7h4c2,0,3.6,1.6,3.6,3.6v8.8c0,2-1.6,3.6-3.6,3.6h-8.3c-.1,0-.2,0-.2.2v2.7c0,.6-.7.9-1.1.5-1.5-1.5-2.8-2.8-3.2-3.2s-.2-.1-.3-.1c-2.1,0-3.7-1.8-3.7-3.9v-8.5c0-2,1.6-3.6,3.6-3.6h9.3Z"/>
  <path class="st1" d="M12.9,20.2c1.3,1.3,4.8,1.3,6.1,0"/>
  <path class="st0" d="M26.2,21.2h1.7c1.1,0,2.1-.9,2.1-2.1v-2.8c0-1.1-.9-2.1-2.1-2.1h-1.7"/>
  <path class="st0" d="M5.8,21.3h-1.7s0,0,0,0c-1.1,0-2.1-.9-2.1-2.1v-2.8c0-1.1.9-2.1,2.1-2.1h1.7"/>
  <line class="st1" x1="19.9" y1="15.3" x2="19.9" y2="15.3"/>
  <line class="st1" x1="12" y1="15.3" x2="12" y2="15.3"/>
</svg>
