<svg xmlns="http://www.w3.org/2000/svg" viewBox="0 0 111.69 28.35"><path d="M90.74 8.93c0-1.48 1.2-2.69 2.67-2.69h12.33c1.91 0 3.1-1.27 3.1-2.84 0-1.57-1.19-2.84-3.1-2.84H93.65c-4.89 0-8.59 3.75-8.59 8.36 0 4.61 3.7 8.36 8.59 8.36h9.68c1.47 0 2.67 1.2 2.67 2.69 0 1.48-1.2 2.69-2.67 2.69H90.99c-1.91 0-3.1 1.27-3.1 2.84 0 1.57 1.19 2.84 3.1 2.84h12.09c4.89 0 8.59-3.75 8.59-8.36s-3.7-8.36-8.59-8.36H93.4c-1.46 0-2.66-1.21-2.66-2.69zM84.6 23.85L72.1 2.21c-.33-.57-.75-.99-1.21-1.27 0 0-.01 0-.01-.01-.33-.19-.68-.31-1.04-.36h-.02c-.07-.01-.14-.01-.21-.02h-.22c-.07 0-.14.01-.21.02h-.02c-.36.04-.71.16-1.04.36 0 0-.01 0-.01.01-.46.27-.88.69-1.21 1.27L54.4 23.86c-.96 1.65-.45 3.32.91 4.11 1.36.78 3.05.39 4.01-1.27L69.49 9.04l10.19 17.65c.96 1.65 2.65 2.05 4.01 1.27 1.36-.79 1.86-2.45.91-4.11zM58.71 3.41c0-1.57-1.19-2.84-3.1-2.84H31.45c-1.91 0-3.1 1.27-3.1 2.84 0 1.57 1.19 2.84 3.1 2.84h9.24v19c0 1.91 1.27 3.1 2.84 3.1s2.84-1.19 2.84-3.1v-19h9.24c1.91 0 3.1-1.28 3.1-2.84zM28.35 14.17C28.35 6.36 21.99 0 14.17 0 6.36 0 0 6.36 0 14.17c0 8.35 6.33 14.17 15.41 14.17h5.09c2.14 0 3.6-1.2 3.6-2.84 0-1.57-1.19-2.84-3.1-2.84h-5.58c-4.61 0-7.95-2.03-9.19-5.37h19.29c1.57 0 2.84-1.27 2.84-2.84v-.28h-.01zm-6.07-2.55H6.07c1.09-3.44 4.31-5.94 8.1-5.94 3.8 0 7.02 2.5 8.11 5.94z" fill="#fff"/></svg>