<svg width="1280" height="720" xmlns="http://www.w3.org/2000/svg" xmlns:xlink="http://www.w3.org/1999/xlink" overflow="hidden"><defs><clipPath id="clip0"><rect x="0" y="0" width="1280" height="720"/></clipPath></defs><g clip-path="url(#clip0)"><rect x="0" y="0" width="1280" height="720" fill="#FFFFFF"/><text fill="#0000FF" font-family="Courier New,Courier New_MSFontService,sans-serif" font-weight="400" font-size="19" transform="translate(19.6577 61)">&lt;AREF<tspan fill="#FF0000" font-size="19" x="67" y="0">ID</tspan><tspan fill="#FF0000" font-size="19" x="89.3333" y="0">-</tspan><tspan fill="#FF0000" font-size="19" x="100.5" y="0">REF</tspan><tspan fill="#000000" font-size="19" x="134" y="0">=</tspan><tspan fill="#8000FF" font-weight="700" font-size="19" x="145.167" y="0">"</tspan><tspan fill="#8000FF" font-weight="700" font-size="19" x="156.333" y="0">EHB_Container</tspan><tspan fill="#8000FF" font-weight="700" font-size="19" x="301.5" y="0">"</tspan><tspan font-size="19" x="323.833" y="0">/&gt;</tspan><tspan font-size="19" x="48" y="23">&lt;</tspan><tspan font-size="19" x="59.1667" y="23">ABLOCKS&gt;</tspan><tspan font-size="19" x="96" y="45">&lt;</tspan>ABLOCK<tspan fill="#FF0000" font-size="19" x="185.333" y="45">ID</tspan><tspan fill="#000000" font-size="19" x="207.667" y="45">=</tspan><tspan fill="#8000FF" font-weight="700" font-size="19" x="218.833" y="45">"</tspan><tspan fill="#8000FF" font-weight="700" font-size="19" x="230" y="45">EHB_Container</tspan><tspan fill="#8000FF" font-weight="700" font-size="19" x="375.167" y="45">"</tspan>&gt;<tspan font-size="19" x="144" y="68">&lt;</tspan>SHORT-NAME&gt;<tspan fill="#000000" font-weight="700" font-size="19" x="278" y="68">ehbContainer</tspan>&lt;/SHORT<tspan font-size="19" x="490.167" y="68">-</tspan>NAME&gt;<tspan font-size="19" x="144" y="90">&lt;</tspan>DESC<tspan font-size="19" x="211" y="90">/&gt;</tspan><tspan font-size="19" x="144" y="112">&lt;</tspan>SDGS&gt;<tspan font-size="19" x="166.333" y="135">&lt;</tspan>SDG<tspan fill="#FF0000" font-size="19" x="222.167" y="135">GID</tspan><tspan fill="#000000" font-size="19" x="255.667" y="135">=</tspan><tspan fill="#8000FF" font-weight="700" font-size="19" x="266.833" y="135">"global"</tspan>&gt;<tspan font-size="19" x="177.5" y="157">&lt;</tspan>SD<tspan fill="#FF0000" font-size="19" x="222.167" y="157">GID</tspan><tspan fill="#000000" font-size="19" x="255.667" y="157">=</tspan><tspan fill="#8000FF" font-weight="700" font-size="19" x="266.833" y="157">"view"</tspan>&gt;<tspan fill="#000000" font-weight="700" font-size="19" x="345" y="157">DETAILED</tspan><tspan font-size="19" x="434.333" y="157">&lt;/SD&gt;</tspan><tspan font-size="19" x="177.5" y="180">&lt;</tspan>SD<tspan fill="#FF0000" font-size="19" x="222.167" y="180">GID</tspan><tspan fill="#000000" font-size="19" x="255.667" y="180">=</tspan><tspan fill="#8000FF" font-weight="700" font-size="19" x="266.833" y="180">"</tspan><tspan fill="#8000FF" font-weight="700" font-size="19" x="278" y="180">project_class</tspan><tspan fill="#8000FF" font-weight="700" font-size="19" x="423.167" y="180">"</tspan>&gt;<tspan fill="#000000" font-weight="700" font-size="19" x="445.5" y="180">PVER</tspan><tspan font-size="19" x="490.167" y="180">&lt;/SD&gt;</tspan><tspan font-size="19" x="166.333" y="202">&lt;/</tspan><tspan font-size="19" x="188.667" y="202">SDG&gt;</tspan><tspan font-size="19" x="174.167" y="224">&lt;/</tspan>SDGS&gt;<tspan font-size="19" x="144" y="247">&lt;</tspan>AREFS&gt;<tspan font-size="19" x="166.333" y="269">&lt;</tspan>AREF<tspan fill="#FF0000" font-size="19" x="233.333" y="269">ID</tspan><tspan fill="#FF0000" font-size="19" x="255.667" y="269">-</tspan><tspan fill="#FF0000" font-size="19" x="266.833" y="269">REF</tspan><tspan fill="#000000" font-size="19" x="300.333" y="269">=</tspan><tspan fill="#8000FF" font-weight="700" font-size="19" x="311.5" y="269">"ID_00001"</tspan><tspan font-size="19" x="423.167" y="269">&gt;</tspan><tspan fill="#000000" font-weight="700" font-size="19" x="434.333" y="269">global_AUTOSAR_data</tspan><tspan font-size="19" x="646.5" y="269">&lt;/AREF&gt;</tspan><tspan font-size="19" x="166.333" y="292">&lt;</tspan>AREF<tspan fill="#FF0000" font-size="19" x="233.333" y="292">ID</tspan><tspan fill="#FF0000" font-size="19" x="255.667" y="292">-</tspan><tspan fill="#FF0000" font-size="19" x="266.833" y="292">REF</tspan><tspan fill="#000000" font-size="19" x="300.333" y="292">=</tspan><tspan fill="#8000FF" font-weight="700" font-size="19" x="311.5" y="292">"ID_00000"</tspan><tspan font-size="19" x="423.167" y="292">&gt;</tspan><tspan fill="#000000" font-weight="700" font-size="19" x="434.333" y="292">fcAlpha_axl</tspan>&lt;/AREF&gt;<tspan font-size="19" x="166.333" y="314">&lt;</tspan>AREF<tspan fill="#FF0000" font-size="19" x="233.333" y="314">ID</tspan><tspan fill="#FF0000" font-size="19" x="255.667" y="314">-</tspan><tspan fill="#FF0000" font-size="19" x="266.833" y="314">REF</tspan><tspan fill="#000000" font-size="19" x="300.333" y="314">=</tspan><tspan fill="#8000FF" font-weight="700" font-size="19" x="311.5" y="314">"ID_00004"</tspan><tspan font-size="19" x="423.167" y="314">&gt;</tspan><tspan fill="#000000" font-weight="700" font-size="19" x="434.333" y="314">globalCdfCdfx</tspan><tspan font-size="19" x="579.5" y="314">&lt;/AREF&gt;</tspan><tspan font-size="19" x="144" y="336">&lt;/</tspan>AREFS&gt;<tspan font-size="19" x="96" y="359">&lt;/</tspan><tspan font-size="19" x="118.333" y="359">ABLOCK&gt;</tspan></text><rect x="108.5" y="87.5001" width="317" height="24" stroke="#E5004A" stroke-width="1.33333" stroke-miterlimit="8" fill="none"/><rect x="180.5" y="311.5" width="567" height="24" stroke="#FF0000" stroke-width="1.33333" stroke-miterlimit="8" fill="none"/><text font-family="Arial,Arial_MSFontService,sans-serif" font-weight="400" font-size="24" transform="translate(26.3619 33)">CCX File<tspan font-family="Courier New,Courier New_MSFontService,sans-serif" font-size="19" x="356.273" y="44">Main ABLOCK for the EHB Container</tspan></text><rect x="17.5001" y="44.5001" width="747" height="390" stroke="#2F528F" stroke-width="1.33333" stroke-miterlimit="8" fill="none"/><text font-family="Courier New,Courier New_MSFontService,sans-serif" font-weight="400" font-size="16" transform="translate(787.298 335)">ABLOCK with references to all <tspan font-size="16" x="53.1666" y="19">software interface </tspan><tspan font-size="16" x="19.3333" y="39">declarations, components, </tspan><tspan font-size="16" x="-9.66669" y="58">compositions (incl. connectors)</tspan><tspan fill="#0000FF" font-size="19" x="-479.645" y="180">&lt;ABLOCK</tspan><tspan fill="#FF0000" font-size="19" x="-390.311" y="180">ID</tspan><tspan font-size="19" x="-367.978" y="180">=</tspan><tspan fill="#8000FF" font-weight="700" font-size="19" x="-356.811" y="180">"ID_00001"</tspan><tspan fill="#0000FF" font-size="19" x="-245.145" y="180">&gt;</tspan><tspan fill="#0000FF" font-size="19" x="-431.645" y="203">&lt;</tspan><tspan fill="#0000FF" font-size="19" x="-420.478" y="203">SHORT</tspan><tspan fill="#0000FF" font-size="19" x="-364.645" y="203">-</tspan><tspan fill="#0000FF" font-size="19" x="-353.478" y="203">NAME&gt;</tspan><tspan font-weight="700" font-size="19" x="-297.645" y="203">Arxml_Ablock</tspan><tspan fill="#0000FF" font-size="19" x="-163.645" y="203">&lt;/SHORT</tspan><tspan fill="#0000FF" font-size="19" x="-85.4781" y="203">-</tspan><tspan fill="#0000FF" font-size="19" x="-74.3114" y="203">NAME&gt;</tspan><tspan fill="#0000FF" font-size="19" x="-431.645" y="225">&lt;</tspan><tspan fill="#0000FF" font-size="19" x="-420.478" y="225">CATEGORY&gt;</tspan><tspan font-weight="700" font-size="19" x="-319.978" y="225">SWCompo</tspan><tspan fill="#0000FF" font-size="19" x="-241.811" y="225">&lt;/CATEGORY&gt;</tspan><tspan fill="#0000FF" font-size="19" x="-431.645" y="248">&lt;</tspan><tspan fill="#0000FF" font-size="19" x="-420.478" y="248">FILES&gt;</tspan><tspan fill="#0000FF" font-size="19" x="-409.311" y="270">&lt;</tspan><tspan fill="#0000FF" font-size="19" x="-398.145" y="270">FILE</tspan><tspan fill="#FF0000" font-size="19" x="-342.311" y="270">TYPE</tspan><tspan font-size="19" x="-297.645" y="270">=</tspan><tspan fill="#8000FF" font-weight="700" font-size="19" x="-286.478" y="270">"ARXML"</tspan><tspan fill="#0000FF" font-size="19" x="-208.311" y="270">&gt;</tspan><tspan font-weight="700" font-size="19" x="-197.145" y="270">_</tspan><tspan font-weight="700" font-size="19" x="-185.978" y="270">global_arxml</tspan><tspan font-weight="700" font-size="19" x="-51.9781" y="270">\</tspan><tspan font-weight="700" font-size="19" x="-40.8114" y="270">Compositions.arxml</tspan><tspan fill="#0000FF" font-size="19" x="160.189" y="270">&lt;/FILE&gt;</tspan><tspan fill="#0000FF" font-size="19" x="-409.311" y="292">&lt;</tspan><tspan fill="#0000FF" font-size="19" x="-398.145" y="292">FILE</tspan><tspan fill="#FF0000" font-size="19" x="-342.311" y="292">TYPE</tspan><tspan font-size="19" x="-297.645" y="292">=</tspan><tspan fill="#8000FF" font-weight="700" font-size="19" x="-286.478" y="292">"ARXML"</tspan><tspan fill="#0000FF" font-size="19" x="-208.311" y="292">&gt;</tspan><tspan font-weight="700" font-size="19" x="-197.145" y="292">_</tspan><tspan font-weight="700" font-size="19" x="-185.978" y="292">global_arxml</tspan><tspan font-weight="700" font-size="19" x="-51.9781" y="292">\</tspan><tspan font-weight="700" font-size="19" x="-40.8114" y="292">Sensors_Comp.arxml</tspan><tspan fill="#0000FF" font-size="19" x="160.189" y="292">&lt;/FILE&gt;</tspan><tspan fill="#0000FF" font-size="19" x="-409.311" y="315">&lt;</tspan><tspan fill="#0000FF" font-size="19" x="-398.145" y="315">FILE</tspan><tspan fill="#FF0000" font-size="19" x="-342.311" y="315">TYPE</tspan><tspan font-size="19" x="-297.645" y="315">=</tspan><tspan fill="#8000FF" font-weight="700" font-size="19" x="-286.478" y="315">"ARXML"</tspan><tspan fill="#0000FF" font-size="19" x="-208.311" y="315">&gt;</tspan><tspan font-weight="700" font-size="19" x="-197.145" y="315">_</tspan><tspan font-weight="700" font-size="19" x="-185.978" y="315">global_arxml</tspan><tspan font-weight="700" font-size="19" x="-51.9781" y="315">\</tspan><tspan font-weight="700" font-size="19" x="-40.8114" y="315">Actuators_Comp.arxml</tspan><tspan fill="#0000FF" font-size="19" x="182.522" y="315">&lt;/FILE&gt;</tspan><tspan fill="#0000FF" font-size="19" x="-431.645" y="337">&lt;/</tspan><tspan fill="#0000FF" font-size="19" x="-409.311" y="337">FILES&gt;</tspan><tspan fill="#0000FF" font-size="19" x="-479.645" y="360">&lt;/</tspan><tspan fill="#0000FF" font-size="19" x="-457.311" y="360">ABLOCK&gt;</tspan></text><path d="M0-0.333333 74.2874-0.333333 74.2874 113.046 73.9541 112.713 141.241 112.713 141.241 113.379 73.6207 113.379 73.6207 0 73.9541 0.333333 0 0.333333ZM139.908 109.046 147.908 113.046 139.908 117.046Z" fill="#164293" transform="matrix(1.83697e-16 1 1 -1.83697e-16 733.5 337.5)"/><rect x="293.5" y="499.5" width="280" height="24" stroke="#039D7C" stroke-width="1.33333" stroke-miterlimit="8" fill="none"/><rect x="343.5" y="543.5" width="366" height="23" stroke="#039D7C" stroke-width="1.33333" stroke-miterlimit="8" fill="none"/><rect x="272.5" y="485.5" width="790" height="214" stroke="#2F528F" stroke-width="1.33333" stroke-miterlimit="8" fill="none"/></g></svg>