<svg width="1280" height="720" xmlns="http://www.w3.org/2000/svg" xmlns:xlink="http://www.w3.org/1999/xlink" overflow="hidden"><defs><clipPath id="clip0"><rect x="0" y="0" width="1280" height="720"/></clipPath></defs><g clip-path="url(#clip0)"><rect x="0" y="0" width="1280" height="720" fill="#FFFFFF"/><text fill="#0000FF" font-family="Courier New,Courier New_MSFontService,sans-serif" font-weight="400" font-size="19" transform="translate(26.8974 72)">&lt;ABLOCK<tspan fill="#FF0000" font-size="19" x="89.3333" y="0">ID</tspan><tspan fill="#000000" font-size="19" x="111.667" y="0">=</tspan><tspan fill="#8000FF" font-weight="700" font-size="19" x="122.833" y="0">"ID_04000"</tspan><tspan font-size="19" x="234.5" y="0">&gt;</tspan><tspan font-size="19" x="33.5" y="23">&lt;</tspan><tspan font-size="19" x="44.6667" y="23">SHORT</tspan>-<tspan font-size="19" x="111.667" y="23">NAME&gt;</tspan><tspan fill="#000000" font-weight="700" font-size="19" x="167.5" y="23">CPT_Afr</tspan>&lt;/SHORT<tspan font-size="19" x="323.833" y="23">-</tspan>NAME&gt;<tspan font-size="19" x="33.5" y="45">&lt;</tspan><tspan font-size="19" x="44.6667" y="45">LONG</tspan><tspan font-size="19" x="89.3333" y="45">-</tspan>NAME&gt;<tspan fill="#000000" font-weight="700" font-size="19" x="156.333" y="45">Air Fuel Ratio</tspan>&lt;/LONG<tspan font-size="19" x="379.667" y="45">-</tspan>NAME&gt;<tspan font-size="19" x="33.5" y="68">&lt;</tspan><tspan font-size="19" x="44.6667" y="68">DESC&gt;</tspan><tspan fill="#000000" font-weight="700" font-size="19" x="100.5" y="68">Afr</tspan><tspan fill="#000000" font-weight="700" font-size="19" x="145.167" y="68">-</tspan><tspan fill="#000000" font-weight="700" font-size="19" x="167.5" y="68">Air Fuel Ratio</tspan><tspan font-size="19" x="323.833" y="68">&lt;/DESC&gt;</tspan><tspan font-size="19" x="33.5" y="90">&lt;</tspan><tspan font-size="19" x="44.6667" y="90">CATEGORY&gt;</tspan><tspan fill="#000000" font-weight="700" font-size="19" x="145.167" y="90">FC</tspan>&lt;/CATEGORY&gt;<tspan font-size="19" x="33.5" y="112">&lt;</tspan><tspan font-size="19" x="44.6667" y="112">ADMIN</tspan>-<tspan font-size="19" x="111.667" y="112">DATA&gt;</tspan><tspan font-size="19" x="33.5" y="135">&lt;</tspan><tspan font-size="19" x="44.6667" y="135">AREFS&gt;</tspan><tspan font-size="19" x="55.8333" y="157">&lt;</tspan>AREF<tspan fill="#FF0000" font-size="19" x="122.833" y="157">ID</tspan><tspan fill="#FF0000" font-size="19" x="145.167" y="157">-</tspan><tspan fill="#FF0000" font-size="19" x="156.333" y="157">REF</tspan><tspan fill="#000000" font-size="19" x="189.833" y="157">=</tspan><tspan fill="#8000FF" font-weight="700" font-size="19" x="201" y="157">"ID_04001"</tspan><tspan font-size="19" x="323.833" y="157">/&gt;</tspan><tspan font-size="19" x="55.8333" y="180">&lt;</tspan>AREF<tspan fill="#FF0000" font-size="19" x="122.833" y="180">ID</tspan><tspan fill="#FF0000" font-size="19" x="145.167" y="180">-</tspan><tspan fill="#FF0000" font-size="19" x="156.333" y="180">REF</tspan><tspan fill="#000000" font-size="19" x="189.833" y="180">=</tspan><tspan fill="#8000FF" font-weight="700" font-size="19" x="201" y="180">"ID_04008"</tspan><tspan font-size="19" x="323.833" y="180">/&gt;</tspan><tspan font-size="19" x="55.8333" y="202">&lt;</tspan>AREF<tspan fill="#FF0000" font-size="19" x="122.833" y="202">ID</tspan><tspan fill="#FF0000" font-size="19" x="145.167" y="202">-</tspan><tspan fill="#FF0000" font-size="19" x="156.333" y="202">REF</tspan><tspan fill="#000000" font-size="19" x="189.833" y="202">=</tspan><tspan fill="#8000FF" font-weight="700" font-size="19" x="201" y="202">"ID_04003"</tspan><tspan font-size="19" x="323.833" y="202">/&gt;</tspan><tspan font-size="19" x="55.8333" y="224">&lt;</tspan>AREF<tspan fill="#FF0000" font-size="19" x="122.833" y="224">ID</tspan><tspan fill="#FF0000" font-size="19" x="145.167" y="224">-</tspan><tspan fill="#FF0000" font-size="19" x="156.333" y="224">REF</tspan><tspan fill="#000000" font-size="19" x="189.833" y="224">=</tspan><tspan fill="#8000FF" font-weight="700" font-size="19" x="201" y="224">"ID_04004"</tspan><tspan font-size="19" x="323.833" y="224">/&gt;</tspan><tspan font-size="19" x="55.8333" y="247">&lt;</tspan>AREF<tspan fill="#FF0000" font-size="19" x="122.833" y="247">ID</tspan><tspan fill="#FF0000" font-size="19" x="145.167" y="247">-</tspan><tspan fill="#FF0000" font-size="19" x="156.333" y="247">REF</tspan><tspan fill="#000000" font-size="19" x="189.833" y="247">=</tspan><tspan fill="#8000FF" font-weight="700" font-size="19" x="201" y="247">"ID_04005"</tspan><tspan font-size="19" x="323.833" y="247">/&gt;</tspan><tspan font-size="19" x="55.8333" y="269">&lt;</tspan>AREF<tspan fill="#FF0000" font-size="19" x="122.833" y="269">ID</tspan><tspan fill="#FF0000" font-size="19" x="145.167" y="269">-</tspan><tspan fill="#FF0000" font-size="19" x="156.333" y="269">REF</tspan><tspan fill="#000000" font-size="19" x="189.833" y="269">=</tspan><tspan fill="#8000FF" font-weight="700" font-size="19" x="201" y="269">"ID_04006"</tspan><tspan font-size="19" x="323.833" y="269">/&gt;</tspan><tspan font-size="19" x="55.8333" y="292">&lt;</tspan>AREF<tspan fill="#FF0000" font-size="19" x="122.833" y="292">ID</tspan><tspan fill="#FF0000" font-size="19" x="145.167" y="292">-</tspan><tspan fill="#FF0000" font-size="19" x="156.333" y="292">REF</tspan><tspan fill="#000000" font-size="19" x="189.833" y="292">=</tspan><tspan fill="#8000FF" font-weight="700" font-size="19" x="201" y="292">"ID_04007"</tspan><tspan font-size="19" x="323.833" y="292">/&gt;</tspan><tspan font-size="19" x="55.8333" y="314">&lt;</tspan>AREF<tspan fill="#FF0000" font-size="19" x="122.833" y="314">ID</tspan><tspan fill="#FF0000" font-size="19" x="145.167" y="314">-</tspan><tspan fill="#FF0000" font-size="19" x="156.333" y="314">REF</tspan><tspan fill="#000000" font-size="19" x="189.833" y="314">=</tspan><tspan fill="#8000FF" font-weight="700" font-size="19" x="201" y="314">"ID_04009"</tspan><tspan font-size="19" x="323.833" y="314">/&gt;</tspan><tspan font-size="19" x="55.8333" y="336">&lt;</tspan>AREF<tspan fill="#FF0000" font-size="19" x="122.833" y="336">ID</tspan><tspan fill="#FF0000" font-size="19" x="145.167" y="336">-</tspan><tspan fill="#FF0000" font-size="19" x="156.333" y="336">REF</tspan><tspan fill="#000000" font-size="19" x="189.833" y="336">=</tspan><tspan fill="#8000FF" font-weight="700" font-size="19" x="201" y="336">"</tspan><tspan fill="#8000FF" font-weight="700" font-size="19" x="212.167" y="336">AfrXfn</tspan><tspan fill="#8000FF" font-weight="700" font-size="19" x="279.167" y="336">"</tspan><tspan font-size="19" x="301.5" y="336">/&gt;</tspan><tspan font-size="19" x="33.5" y="359">&lt;/</tspan>AREFS&gt;<tspan font-size="19" x="0" y="382">&lt;/</tspan>ABLOCK&gt;</text><rect x="82.5001" y="368.5" width="292" height="24" stroke="#FF0000" stroke-width="1.33333" stroke-miterlimit="8" fill="none"/><text font-family="Calibri,Calibri_MSFontService,sans-serif" font-weight="400" font-size="24" transform="translate(26.8974 39)">CCX File</text><rect x="17.5001" y="51.5001" width="470" height="418" stroke="#2F528F" stroke-width="1.33333" stroke-miterlimit="8" fill="none"/><text fill="#0000FF" font-family="Courier New,Courier New_MSFontService,sans-serif" font-weight="400" font-size="19" transform="translate(150.573 529)">&lt;ABLOCK<tspan fill="#FF0000" font-size="19" x="89.3333" y="0">ID</tspan><tspan fill="#000000" font-size="19" x="111.667" y="0">=</tspan><tspan fill="#8000FF" font-weight="700" font-size="19" x="122.833" y="0">"ID_04009"</tspan>&gt;<tspan font-size="19" x="33.5" y="23">&lt;</tspan><tspan font-size="19" x="44.6667" y="23">SHORT</tspan><tspan font-size="19" x="100.5" y="23">-</tspan><tspan font-size="19" x="111.667" y="23">NAME&gt;</tspan><tspan fill="#000000" font-weight="700" font-size="19" x="167.5" y="23">afr_arxml</tspan>&lt;/SHORT<tspan font-size="19" x="346.167" y="23">-</tspan>NAME<tspan font-size="19" x="402" y="23">&gt;</tspan><tspan font-size="19" x="33.5" y="45">&lt;CATEGORY&gt;SWCD&lt;/CATEGORY&gt;</tspan><tspan font-size="19" x="33.5" y="68">&lt;</tspan><tspan font-size="19" x="44.6667" y="68">FILES&gt;</tspan><tspan font-size="19" x="67" y="90">&lt;</tspan><tspan font-size="19" x="78.1667" y="90">FILE</tspan><tspan fill="#FF0000" font-size="19" x="134" y="90">TYPE</tspan><tspan fill="#000000" font-size="19" x="178.667" y="90">=</tspan><tspan fill="#8000FF" font-weight="700" font-size="19" x="189.833" y="90">"ARXML"</tspan>&gt;<tspan fill="#000000" font-weight="700" font-size="19" x="279.167" y="90">Afr</tspan><tspan fill="#000000" font-weight="700" font-size="19" x="312.667" y="90">\</tspan><tspan fill="#000000" font-weight="700" font-size="19" x="323.833" y="90">Afr.arxml</tspan>&lt;/FILE&gt;<tspan font-size="19" x="33.5" y="112">&lt;/</tspan><tspan font-size="19" x="55.8333" y="112">FILES&gt;</tspan><tspan font-size="19" x="0" y="135">&lt;/</tspan><tspan font-size="19" x="22.3333" y="135">ABLOCK&gt;</tspan></text><rect x="141.5" y="497.5" width="520" height="181" stroke="#000000" stroke-width="1.33333" stroke-miterlimit="8" fill="none"/><rect x="182.5" y="560.5" width="311" height="18" stroke="#00B050" stroke-width="1.33333" stroke-miterlimit="8" fill="none"/><rect x="149.5" y="503.5" width="266" height="29" stroke="#00B050" stroke-width="1.33333" stroke-miterlimit="8" fill="none"/><path d="M0-0.333333 59.3455-0.333333 59.3455 60.5405 59.0122 60.2071 111.358 60.2071 111.358 60.8738 58.6788 60.8738 58.6788 0 59.0122 0.333333 0 0.333333ZM110.024 56.5405 118.024 60.5405 110.024 64.5405Z" fill="#4472C4" transform="matrix(1.83697e-16 1 1 -1.83697e-16 374.5 379.5)"/><text font-family="Calibri,Calibri_MSFontService,sans-serif" font-weight="400" font-size="19" transform="translate(518.151 460)">ABLOCK with<tspan font-size="19" x="102.587" y="0">references</tspan><tspan font-size="19" x="186.627" y="0">to</tspan><tspan font-size="19" x="206.78" y="0">.</tspan><tspan font-size="19" x="211.447" y="0">arxml</tspan><tspan font-size="19" x="258.447" y="0">file</tspan><tspan font-size="19" x="282.113" y="0">(s) </tspan><tspan font-size="19" x="24.7133" y="23">for</tspan><tspan font-size="19" x="50.4866" y="23">an individual SWC </tspan><tspan font-size="19" x="190.813" y="23">description</tspan></text></g></svg>